<?xml version="1.0" encoding="UTF-8"?>
<svg xmlns="http://www.w3.org/2000/svg" version="1.1" viewBox="0 0 500 500">
  <defs>
    <style>
      .cls-1, .cls-2, .cls-3, .cls-4, .cls-5, .cls-6, .cls-7, .cls-8, .cls-9 {
        stroke-linecap: round;
        stroke-linejoin: round;
        stroke-width: 2.5px;
      }

      .cls-1, .cls-2, .cls-5, .cls-6, .cls-8, .cls-9 {
        stroke: #263238;
      }

      .cls-1, .cls-10 {
        fill: #fcd8c3;
      }

      .cls-2, .cls-3, .cls-4 {
        fill: none;
      }

      .cls-3 {
        stroke: #9abae3;
      }

      .cls-11, .cls-6 {
        fill: #263238;
      }

      .cls-12, .cls-7, .cls-9 {
        fill: #fff;
      }

      .cls-4, .cls-7 {
        stroke: #ec644e;
      }

      .cls-5, .cls-13 {
        fill: #ec644e;
      }

      .cls-8, .cls-14 {
        fill: #9abae3;
      }
    </style>
  </defs>
  <!-- Generator: Adobe Illustrator 28.6.0, SVG Export Plug-In . SVG Version: 1.2.0 Build 709)  -->
  <g>
    <g id="Speech_bubble">
      <g>
        <path class="cls-9" d="M364.14,220.38l13.76.25v6.94c0,3.55,2.88,6.42,6.42,6.42h64.15c3.55,0,6.42-2.88,6.42-6.42v-40.37c0-3.55-2.88-6.42-6.42-6.42h-64.15c-3.55,0-6.42,2.88-6.42,6.42v10.51l-15.25,20.18c-.78,1.13.13,2.65,1.49,2.49Z"/>
        <g>
          <path class="cls-13" d="M407.02,202.32h0c0,.7-.43,1.33-1.08,1.59l-4.14,1.62c-1.44.56-1.44,2.61,0,3.16l4.12,1.59c.65.25,1.09.88,1.09,1.58h0c0,1.2-1.22,2.02-2.33,1.57l-10.8-4.38c-.64-.26-1.06-.88-1.06-1.57v-.78c0-.69.42-1.31,1.06-1.57l10.8-4.38c1.12-.45,2.33.37,2.33,1.57Z"/>
          <path class="cls-13" d="M411.79,220.99h0c-1.31,0-2.19-1.33-1.69-2.54l9.15-21.76c.29-.68.95-1.12,1.69-1.12h0c1.31,0,2.19,1.33,1.69,2.54l-9.15,21.76c-.29.68-.95,1.12-1.69,1.12Z"/>
          <path class="cls-13" d="M430.92,205.52l-4.14-1.62c-.65-.25-1.08-.88-1.08-1.58h0c0-1.21,1.22-2.03,2.33-1.58l10.8,4.38c.64.26,1.06.88,1.06,1.57v.78c0,.69-.42,1.31-1.06,1.57l-10.8,4.38c-1.12.45-2.33-.37-2.33-1.57h0c0-.7.43-1.33,1.09-1.58l4.12-1.59c1.44-.56,1.45-2.6,0-3.16Z"/>
        </g>
      </g>
    </g>
    <g id="Tab">
      <g>
        <g>
          <path class="cls-9" d="M314.35,111.48c0-3.3-2.68-5.98-5.98-5.98H79.39c-3.3,0-5.98,2.68-5.98,5.98v8.08h240.93v-8.08Z"/>
          <path class="cls-9" d="M73.42,119.56v138.84c0,3.3,2.68,5.98,5.98,5.98h228.98c3.3,0,5.98-2.68,5.98-5.98V119.56H73.42Z"/>
        </g>
        <g>
          <circle class="cls-2" cx="91.26" cy="112.52" r="1.02"/>
          <circle class="cls-2" cx="100.75" cy="112.52" r="1.02"/>
          <circle class="cls-2" cx="110.25" cy="112.52" r="1.02"/>
        </g>
        <line class="cls-2" x1="137.51" y1="131.28" x2="137.51" y2="250.5"/>
        <g>
          <line class="cls-2" x1="83.58" y1="133.62" x2="90.12" y2="133.62"/>
          <line class="cls-2" x1="96.18" y1="133.62" x2="111.27" y2="133.62"/>
          <line class="cls-2" x1="115.57" y1="133.62" x2="126.76" y2="133.62"/>
          <line class="cls-2" x1="96.18" y1="141.67" x2="103.73" y2="141.67"/>
          <line class="cls-2" x1="107.76" y1="141.67" x2="126.76" y2="141.67"/>
          <line class="cls-2" x1="96.18" y1="149.73" x2="111.27" y2="149.73"/>
          <line class="cls-2" x1="115.57" y1="149.73" x2="126.76" y2="149.73"/>
        </g>
        <g>
          <line class="cls-2" x1="152.67" y1="133.62" x2="159.22" y2="133.62"/>
          <line class="cls-4" x1="165.28" y1="133.62" x2="180.36" y2="133.62"/>
          <line class="cls-2" x1="184.66" y1="133.62" x2="195.85" y2="133.62"/>
          <line class="cls-3" x1="165.28" y1="141.67" x2="172.82" y2="141.67"/>
          <line class="cls-2" x1="176.85" y1="141.67" x2="195.85" y2="141.67"/>
          <line class="cls-4" x1="165.28" y1="149.73" x2="180.36" y2="149.73"/>
          <line class="cls-2" x1="184.66" y1="149.73" x2="195.85" y2="149.73"/>
          <line class="cls-3" x1="199.49" y1="133.62" x2="214.58" y2="133.62"/>
          <line class="cls-2" x1="218.88" y1="133.62" x2="230.07" y2="133.62"/>
          <line class="cls-2" x1="233.94" y1="149.73" x2="245.13" y2="149.73"/>
          <line class="cls-3" x1="248.77" y1="149.73" x2="263.86" y2="149.73"/>
          <line class="cls-2" x1="268.16" y1="149.73" x2="279.35" y2="149.73"/>
          <line class="cls-4" x1="199.49" y1="141.67" x2="207.04" y2="141.67"/>
          <line class="cls-3" x1="211.07" y1="141.67" x2="230.07" y2="141.67"/>
          <line class="cls-2" x1="233.35" y1="141.67" x2="252.35" y2="141.67"/>
          <line class="cls-4" x1="255.99" y1="141.67" x2="263.54" y2="141.67"/>
          <line class="cls-3" x1="267.57" y1="141.67" x2="286.57" y2="141.67"/>
          <line class="cls-2" x1="199.49" y1="149.73" x2="214.58" y2="149.73"/>
          <line class="cls-4" x1="218.88" y1="149.73" x2="230.07" y2="149.73"/>
        </g>
        <g>
          <line class="cls-2" x1="152.67" y1="159.48" x2="159.22" y2="159.48"/>
          <line class="cls-2" x1="165.28" y1="159.48" x2="180.36" y2="159.48"/>
          <line class="cls-4" x1="184.66" y1="159.48" x2="195.85" y2="159.48"/>
          <line class="cls-2" x1="165.28" y1="167.54" x2="172.82" y2="167.54"/>
          <line class="cls-3" x1="176.85" y1="167.54" x2="195.85" y2="167.54"/>
          <line class="cls-4" x1="165.28" y1="175.59" x2="180.36" y2="175.59"/>
          <line class="cls-2" x1="184.66" y1="175.59" x2="195.85" y2="175.59"/>
          <line class="cls-2" x1="199.49" y1="159.48" x2="214.58" y2="159.48"/>
          <line class="cls-3" x1="218.88" y1="159.48" x2="230.07" y2="159.48"/>
          <line class="cls-4" x1="199.49" y1="167.54" x2="207.04" y2="167.54"/>
          <line class="cls-2" x1="211.07" y1="167.54" x2="230.07" y2="167.54"/>
          <line class="cls-3" x1="233.19" y1="175.59" x2="252.19" y2="175.59"/>
          <line class="cls-4" x1="255.84" y1="175.59" x2="263.38" y2="175.59"/>
          <line class="cls-2" x1="267.41" y1="175.59" x2="286.41" y2="175.59"/>
          <line class="cls-3" x1="199.49" y1="175.59" x2="214.58" y2="175.59"/>
          <line class="cls-4" x1="218.88" y1="175.59" x2="230.07" y2="175.59"/>
        </g>
        <g>
          <line class="cls-2" x1="152.67" y1="185.35" x2="159.22" y2="185.35"/>
          <line class="cls-3" x1="165.28" y1="185.35" x2="180.36" y2="185.35"/>
          <line class="cls-2" x1="184.66" y1="185.35" x2="195.85" y2="185.35"/>
          <line class="cls-2" x1="165.28" y1="193.4" x2="172.82" y2="193.4"/>
          <line class="cls-4" x1="176.85" y1="193.4" x2="195.85" y2="193.4"/>
          <line class="cls-4" x1="165.28" y1="201.46" x2="180.36" y2="201.46"/>
          <line class="cls-3" x1="184.66" y1="201.46" x2="195.85" y2="201.46"/>
          <line class="cls-4" x1="199.49" y1="185.35" x2="214.58" y2="185.35"/>
          <line class="cls-2" x1="218.88" y1="185.35" x2="230.07" y2="185.35"/>
          <line class="cls-2" x1="233.94" y1="193.4" x2="245.13" y2="193.4"/>
          <line class="cls-4" x1="232.91" y1="201.39" x2="248" y2="201.39"/>
          <line class="cls-2" x1="252.3" y1="201.39" x2="263.49" y2="201.39"/>
          <line class="cls-2" x1="199.49" y1="193.4" x2="207.04" y2="193.4"/>
          <line class="cls-3" x1="211.07" y1="193.4" x2="230.07" y2="193.4"/>
          <line class="cls-4" x1="199.49" y1="201.46" x2="214.58" y2="201.46"/>
          <line class="cls-2" x1="218.88" y1="201.46" x2="230.07" y2="201.46"/>
        </g>
        <g>
          <line class="cls-2" x1="152.67" y1="211.21" x2="159.22" y2="211.21"/>
          <line class="cls-3" x1="165.28" y1="211.21" x2="180.36" y2="211.21"/>
          <line class="cls-4" x1="184.66" y1="211.21" x2="195.85" y2="211.21"/>
          <line class="cls-2" x1="165.28" y1="219.27" x2="172.82" y2="219.27"/>
          <line class="cls-4" x1="233.35" y1="219.27" x2="252.35" y2="219.27"/>
          <line class="cls-4" x1="177.24" y1="219.27" x2="196.23" y2="219.27"/>
          <line class="cls-4" x1="165.28" y1="227.32" x2="180.36" y2="227.32"/>
          <line class="cls-2" x1="184.66" y1="227.32" x2="195.85" y2="227.32"/>
          <line class="cls-2" x1="199.49" y1="211.21" x2="214.58" y2="211.21"/>
          <line class="cls-2" x1="218.88" y1="211.21" x2="230.07" y2="211.21"/>
          <line class="cls-2" x1="199.49" y1="219.27" x2="207.04" y2="219.27"/>
          <line class="cls-3" x1="211.07" y1="219.27" x2="230.07" y2="219.27"/>
          <line class="cls-2" x1="199.49" y1="227.32" x2="214.58" y2="227.32"/>
          <line class="cls-4" x1="218.88" y1="227.32" x2="230.07" y2="227.32"/>
          <line class="cls-2" x1="234.68" y1="227.32" x2="249.77" y2="227.32"/>
          <line class="cls-4" x1="254.07" y1="227.32" x2="265.26" y2="227.32"/>
        </g>
        <g>
          <line class="cls-2" x1="152.67" y1="237.08" x2="159.22" y2="237.08"/>
          <line class="cls-2" x1="165.28" y1="237.08" x2="180.36" y2="237.08"/>
          <line class="cls-4" x1="184.66" y1="237.08" x2="195.85" y2="237.08"/>
          <line class="cls-2" x1="165.28" y1="245.13" x2="172.82" y2="245.13"/>
          <line class="cls-2" x1="176.85" y1="245.13" x2="195.85" y2="245.13"/>
          <line class="cls-4" x1="165.28" y1="253.18" x2="180.36" y2="253.18"/>
          <line class="cls-2" x1="184.66" y1="253.18" x2="195.85" y2="253.18"/>
          <line class="cls-2" x1="199.49" y1="237.08" x2="214.58" y2="237.08"/>
          <line class="cls-2" x1="218.88" y1="237.08" x2="230.07" y2="237.08"/>
          <line class="cls-4" x1="199.49" y1="245.13" x2="207.04" y2="245.13"/>
          <line class="cls-2" x1="211.07" y1="245.13" x2="230.07" y2="245.13"/>
          <line class="cls-2" x1="199.49" y1="253.18" x2="214.58" y2="253.18"/>
          <line class="cls-4" x1="218.88" y1="253.18" x2="230.07" y2="253.18"/>
        </g>
        <g>
          <line class="cls-2" x1="83.58" y1="159.48" x2="90.12" y2="159.48"/>
          <line class="cls-2" x1="96.18" y1="159.48" x2="111.27" y2="159.48"/>
          <line class="cls-2" x1="115.57" y1="159.48" x2="126.76" y2="159.48"/>
          <line class="cls-2" x1="96.18" y1="167.54" x2="103.73" y2="167.54"/>
          <line class="cls-2" x1="107.76" y1="167.54" x2="126.76" y2="167.54"/>
          <line class="cls-2" x1="96.18" y1="175.59" x2="111.27" y2="175.59"/>
          <line class="cls-2" x1="115.57" y1="175.59" x2="126.76" y2="175.59"/>
        </g>
        <g>
          <line class="cls-2" x1="83.58" y1="185.35" x2="90.12" y2="185.35"/>
          <line class="cls-2" x1="96.18" y1="185.35" x2="111.27" y2="185.35"/>
          <line class="cls-2" x1="115.57" y1="185.35" x2="126.76" y2="185.35"/>
          <line class="cls-2" x1="96.18" y1="193.4" x2="103.73" y2="193.4"/>
          <line class="cls-2" x1="107.76" y1="193.4" x2="126.76" y2="193.4"/>
          <line class="cls-2" x1="96.18" y1="201.46" x2="111.27" y2="201.46"/>
          <line class="cls-2" x1="115.57" y1="201.46" x2="126.76" y2="201.46"/>
        </g>
        <g>
          <line class="cls-2" x1="83.58" y1="211.21" x2="90.12" y2="211.21"/>
          <line class="cls-2" x1="96.18" y1="211.21" x2="111.27" y2="211.21"/>
          <line class="cls-2" x1="115.57" y1="211.21" x2="126.76" y2="211.21"/>
          <line class="cls-2" x1="96.18" y1="219.27" x2="103.73" y2="219.27"/>
          <line class="cls-2" x1="107.76" y1="219.27" x2="126.76" y2="219.27"/>
          <line class="cls-2" x1="96.18" y1="227.32" x2="111.27" y2="227.32"/>
          <line class="cls-2" x1="115.57" y1="227.32" x2="126.76" y2="227.32"/>
        </g>
        <g>
          <line class="cls-2" x1="83.58" y1="237.08" x2="90.12" y2="237.08"/>
          <line class="cls-2" x1="96.18" y1="237.08" x2="111.27" y2="237.08"/>
          <line class="cls-2" x1="115.57" y1="237.08" x2="126.76" y2="237.08"/>
          <line class="cls-2" x1="96.18" y1="245.13" x2="103.73" y2="245.13"/>
          <line class="cls-2" x1="107.76" y1="245.13" x2="126.76" y2="245.13"/>
          <line class="cls-2" x1="96.18" y1="253.18" x2="111.27" y2="253.18"/>
          <line class="cls-2" x1="115.57" y1="253.18" x2="126.76" y2="253.18"/>
        </g>
      </g>
    </g>
    <g id="Code">
      <g>
        <rect class="cls-9" x="21.43" y="198.71" width="76.73" height="76.73" rx="7.82" ry="7.82"/>
        <path class="cls-14" d="M98.16,211.58v-5.05c0-4.32-3.5-7.82-7.82-7.82H29.25c-4.32,0-7.82,3.5-7.82,7.82v5.05h76.73Z"/>
        <path class="cls-12" d="M25.26,207.45c0-3.11,2.52-5.63,5.63-5.63h65.46c.07,0,.15,0,.22.01-1.43-1.89-3.69-3.12-6.24-3.12H29.26c-4.32,0-7.82,3.5-7.82,7.82v5.05h3.83v-4.12Z"/>
        <path class="cls-2" d="M98.16,211.58v-5.05c0-4.32-3.5-7.82-7.82-7.82H29.25c-4.32,0-7.82,3.5-7.82,7.82v5.05h76.73Z"/>
        <g>
          <path class="cls-13" d="M50.46,226.09h0c0,.7-.43,1.33-1.08,1.59l-4.14,1.62c-1.44.56-1.44,2.61,0,3.16l4.12,1.59c.65.25,1.09.88,1.09,1.58h0c0,1.2-1.22,2.02-2.33,1.57l-10.8-4.38c-.64-.26-1.06-.88-1.06-1.57v-.78c0-.69.42-1.31,1.06-1.57l10.8-4.38c1.12-.45,2.33.37,2.33,1.57Z"/>
          <path class="cls-13" d="M55.22,244.77h0c-1.31,0-2.19-1.33-1.69-2.54l9.15-21.76c.29-.68.95-1.12,1.69-1.12h0c1.31,0,2.19,1.33,1.69,2.54l-9.15,21.76c-.29.68-.95,1.12-1.69,1.12Z"/>
          <path class="cls-13" d="M74.36,229.3l-4.14-1.62c-.65-.25-1.08-.88-1.08-1.58h0c0-1.21,1.22-2.03,2.33-1.58l10.8,4.38c.64.26,1.06.88,1.06,1.57v.78c0,.69-.42,1.31-1.06,1.57l-10.8,4.38c-1.12.45-2.33-.37-2.33-1.57h0c0-.7.43-1.33,1.09-1.58l4.12-1.59c1.44-.56,1.45-2.6,0-3.16Z"/>
        </g>
        <path class="cls-7" d="M54.72,252.01h30.9"/>
        <path class="cls-7" d="M33.47,252.01h12.76"/>
        <path class="cls-7" d="M73.98,262.19h11.65"/>
        <path class="cls-7" d="M33.47,262.19h32.17"/>
      </g>
    </g>
    <g id="Hashtag">
      <g>
        <g>
          <rect class="cls-9" x="266.5" y="67.75" width="181.06" height="60.32" rx="8.85" ry="8.85"/>
          <path class="cls-8" d="M296.81,113.09h-7.28l3.35-8.78h-5.99l1.88-4.85h5.99l2.23-5.85h-6.28l1.88-4.85h6.28l3.35-8.74h7.28l-3.35,8.74h6.34l3.35-8.74h7.28l-3.35,8.74h5.99l-1.88,4.85h-5.99l-2.23,5.85h6.28l-1.88,4.85h-6.28l-3.35,8.78h-7.28l3.35-8.78h-6.34l-3.35,8.78ZM310.6,93.62h-6.34l-2.23,5.85h6.34l2.23-5.85Z"/>
          <g>
            <path class="cls-2" d="M415.48,89.09c5.04.05,10.07.12,15.11.21"/>
            <path class="cls-2" d="M388.85,89c7.2-.02,14.39,0,21.59.05"/>
            <path class="cls-2" d="M360.15,89.3c7.71-.14,15.41-.23,23.12-.28"/>
            <path class="cls-2" d="M341.67,89.3h13.35"/>
            <path class="cls-2" d="M403.98,96.24c8.87.01,17.74.12,26.61.32"/>
            <path class="cls-2" d="M373.6,96.56c8.26-.19,16.52-.29,24.78-.32"/>
            <path class="cls-2" d="M341.67,96.56c8.84-.43,17.13-.43,26.79,0"/>
            <path class="cls-2" d="M420.6,103.67c3.33.04,6.66.1,10,.16"/>
            <path class="cls-2" d="M392.03,103.5c7.62,0,15.23.02,22.85.1"/>
            <path class="cls-2" d="M358.37,103.82c9.32-.17,18.63-.27,27.95-.31"/>
            <path class="cls-2" d="M341.67,103.82h11.53"/>
            <path class="cls-2" d="M404,110.76c8.86.03,17.73.14,26.59.32"/>
            <path class="cls-2" d="M367.12,111.09c10.42-.22,20.84-.33,31.26-.33"/>
            <path class="cls-2" d="M341.67,111.09h20.31"/>
          </g>
        </g>
        <rect class="cls-13" x="435.6" y="53.87" width="27.75" height="27.75" rx="6.2" ry="6.2"/>
        <path class="cls-12" d="M438.19,79.31v-18.87c0-2.05,1.67-3.72,3.72-3.72h18.87c.8,0,1.57.16,2.28.44-.8-2.5-3.15-3.29-5.9-3.29h-15.36c-3.41,0-6.2,2.79-6.2,6.2v15.36c0,2.6,1.63,4.84,3.92,5.75-.19-.59-1.33-1.22-1.33-1.87Z"/>
        <rect class="cls-2" x="435.6" y="53.87" width="27.75" height="27.75" rx="6.2" ry="6.2"/>
        <path class="cls-12" d="M449.68,72.92c-.5,0-.98-.19-1.35-.52l-3.4-3.11c-.81-.74-.87-2.01-.13-2.82.74-.81,2.01-.87,2.82-.13l1.85,1.69,3.45-4.17c.7-.85,1.96-.97,2.81-.27.85.7.97,1.96.27,2.81l-4.79,5.79c-.35.42-.85.68-1.4.72-.05,0-.09,0-.14,0Z"/>
      </g>
    </g>
    <g id="Folders">
      <g>
        <path class="cls-8" d="M103.43,48.88h-13.16v-.48c0-1.87-1.51-3.38-3.38-3.38h-10.33c-1.87,0-3.38,1.51-3.38,3.38v21.32c0,1.61,1.3,2.91,2.91,2.91h27.34c1.61,0,2.91-1.3,2.91-2.91v-17.94c0-1.61-1.3-2.91-2.91-2.91Z"/>
        <path class="cls-13" d="M148.38,48.88h-13.16v-.48c0-1.87-1.51-3.38-3.38-3.38h-10.33c-1.87,0-3.38,1.51-3.38,3.38v21.32c0,1.61,1.3,2.91,2.91,2.91h27.34c1.61,0,2.91-1.3,2.91-2.91v-17.94c0-1.61-1.3-2.91-2.91-2.91Z"/>
        <g>
          <path class="cls-12" d="M148.38,48.88h-14.4v2.13c0,.76.61,1.37,1.37,1.37h15.94v-.59c0-1.61-1.3-2.91-2.91-2.91Z"/>
          <path class="cls-12" d="M121.4,59.09v-8.36c0-1.21.98-2.2,2.2-2.2h11.63v-.13c0-1.87-1.51-3.38-3.38-3.38h-10.33c-1.87,0-3.38,1.51-3.38,3.38v21.32c0,1.61,1.3,2.91,2.91,2.91h.36v-13.55Z"/>
        </g>
        <path class="cls-2" d="M148.38,48.88h-13.16v-.48c0-1.87-1.51-3.38-3.38-3.38h-10.33c-1.87,0-3.38,1.51-3.38,3.38v21.32c0,1.61,1.3,2.91,2.91,2.91h27.34c1.61,0,2.91-1.3,2.91-2.91v-17.94c0-1.61-1.3-2.91-2.91-2.91Z"/>
        <path class="cls-9" d="M193.36,48.88h-13.16v-.48c0-1.87-1.51-3.38-3.38-3.38h-10.33c-1.87,0-3.38,1.51-3.38,3.38v21.32c0,1.61,1.3,2.91,2.91,2.91h27.34c1.61,0,2.91-1.3,2.91-2.91v-17.94c0-1.61-1.3-2.91-2.91-2.91Z"/>
      </g>
    </g>
    <g id="Cursor">
      <polygon class="cls-9" points="137.97 66.63 134.63 64.62 135.5 68.42 144.86 109.07 153.73 98.09 164.18 112.52 166.33 110.96 168.8 109.17 170.96 107.61 160.5 93.18 173.69 88.17 137.97 66.63"/>
    </g>
    <g id="Gears">
      <g>
        <path class="cls-5" d="M144.44,297.55v-7.09h-4.45c-.33-1.26-.83-2.45-1.47-3.55l3.15-3.15-5.01-5.01-3.15,3.15c-1.1-.64-2.29-1.14-3.55-1.47v-4.45h-7.09v4.45c-1.26.33-2.45.83-3.55,1.47l-3.15-3.15-5.01,5.01,3.15,3.15c-.64,1.1-1.14,2.29-1.47,3.55h-4.45v7.09h4.45c.33,1.26.83,2.45,1.47,3.55l-3.15,3.15,5.01,5.01,3.15-3.15c1.1.64,2.29,1.14,3.55,1.47v4.45h7.09v-4.45c1.26-.33,2.45-.83,3.55-1.47l3.15,3.15,5.01-5.01-3.15-3.15c.64-1.1,1.14-2.29,1.47-3.55h4.45ZM126.42,300.48c-3.58,0-6.48-2.9-6.48-6.48s2.9-6.48,6.48-6.48,6.48,2.9,6.48,6.48-2.9,6.48-6.48,6.48Z"/>
        <path class="cls-5" d="M176.88,312.67v-5.43h-3.41c-.25-.97-.64-1.88-1.13-2.72l2.41-2.41-3.84-3.84-2.41,2.41c-.84-.49-1.75-.88-2.72-1.13v-3.41h-5.43v3.41c-.97.25-1.88.64-2.72,1.13l-2.41-2.41-3.84,3.84,2.41,2.41c-.49.84-.88,1.75-1.13,2.72h-3.41v5.43h3.41c.25.97.64,1.88,1.13,2.72l-2.41,2.41,3.84,3.84,2.41-2.41c.84.49,1.75.88,2.72,1.13v3.41h5.43v-3.41c.97-.25,1.88-.64,2.72-1.13l2.41,2.41,3.84-3.84-2.41-2.41c.49-.84.88-1.75,1.13-2.72h3.41ZM163.07,314.92c-2.74,0-4.96-2.22-4.96-4.96s2.22-4.96,4.96-4.96,4.96,2.22,4.96,4.96-2.22,4.96-4.96,4.96Z"/>
      </g>
    </g>
    <g id="Plant">
      <g>
        <path class="cls-14" d="M102.09,393.79c-5.24,4.03-20.24,3.16-20.24,3.16,0,0,3.74-13.79,8.99-17.81,5.24-4.03,15.12.04,15.12.04,0,0,1.38,10.59-3.87,14.62Z"/>
        <path class="cls-12" d="M105.96,379.17s-9.88-4.06-15.12-.04c-1.05.81-2.04,2.01-2.95,3.41.18-.16.36-.32.54-.46,5.24-4.03,15.12.04,15.12.04,0,0,.9,6.95-1.54,11.73.03-.02.06-.04.08-.06,5.24-4.03,3.87-14.62,3.87-14.62Z"/>
        <path class="cls-2" d="M102.09,393.79c-5.24,4.03-20.24,3.16-20.24,3.16,0,0,3.74-13.79,8.99-17.81,5.24-4.03,15.12.04,15.12.04,0,0,1.38,10.59-3.87,14.62Z"/>
        <path class="cls-14" d="M62.03,393.79c5.24,4.03,20.24,3.16,20.24,3.16,0,0-3.74-13.79-8.99-17.81-5.24-4.03-15.12.04-15.12.04,0,0-1.38,10.59,3.87,14.62Z"/>
        <path class="cls-12" d="M59.7,383.03s9.88-4.06,15.12-.04c2.25,1.73,4.22,5.25,5.74,8.71-1.59-4.34-4.17-10.18-7.28-12.57-5.24-4.03-15.12.04-15.12.04,0,0-.99,7.71,1.98,12.47-1-4.21-.44-8.62-.44-8.62Z"/>
        <path class="cls-2" d="M62.03,393.79c5.24,4.03,20.24,3.16,20.24,3.16,0,0-3.74-13.79-8.99-17.81-5.24-4.03-15.12.04-15.12.04,0,0-1.38,10.59,3.87,14.62Z"/>
        <path class="cls-14" d="M91.58,380.02c.02,6.61-9.77,18-9.77,18,0,0-8.69-11.34-8.71-17.95-.02-6.61,9.21-11.99,9.21-11.99,0,0,9.25,5.33,9.27,11.94Z"/>
        <path class="cls-12" d="M83.08,372.22s6.21,3.59,8.46,8.52c.02-.25.04-.49.04-.72-.02-6.61-9.27-11.94-9.27-11.94,0,0-9.22,5.38-9.21,11.99,0,1.21.3,2.59.78,4.02.1-6.55,9.2-11.87,9.2-11.87Z"/>
        <path class="cls-2" d="M91.58,380.02c.02,6.61-9.77,18-9.77,18,0,0-8.69-11.34-8.71-17.95-.02-6.61,9.21-11.99,9.21-11.99,0,0,9.25,5.33,9.27,11.94Z"/>
        <g>
          <g>
            <polygon class="cls-13" points="94.85 428.74 68.49 428.74 62.81 397.02 100.53 397.02 94.85 428.74"/>
            <path class="cls-12" d="M63.37,400.13l-.56-3.12h37.72l-5.68,31.72h-3.61l2.59-14.46h-29.39c-.08-1.06-.28-2.11-.59-3.12h30.53l1.98-11.03h-33Z"/>
            <polygon class="cls-2" points="94.85 428.74 68.49 428.74 62.81 397.02 100.53 397.02 94.85 428.74"/>
          </g>
          <line class="cls-2" x1="64.31" y1="402.93" x2="99.21" y2="402.93"/>
        </g>
      </g>
    </g>
    <g id="Character">
      <g>
        <g>
          <g>
            <polygon class="cls-8" points="415.12 370.05 415.08 370.31 415 371.01 414.97 371.19 414.96 371.3 414.76 372.96 412.66 430.47 403.31 430.47 385.12 430.47 392.8 425.82 404.61 379.88 405.5 372.64 405.85 369.74 405.88 369.6 405.92 369.21 405.97 368.81 405.98 368.74 408.2 369.07 408.78 369.15 415 370.03 415.12 370.05"/>
            <g>
              <g>
                <path class="cls-10" d="M158.87,395.22l8.77-23.47c1.72-4.25,7.81-15.69,8.85-15.5l11.58-18.25c5.64-3.41,43.93-3.6,62.54-3.77,0,0,3.26,9.71,6.69,10.19-.41,3.85-10.34,22.54-13.85,29.96-11.6,24.57-11.6,37.65-25.52,40.51-1.57.32-30.07,1.07-32.85,1.1.42-1.91-23.07-4.43-26.2-20.77Z"/>
                <path class="cls-2" d="M215.8,372.36c0-2.61-7.72-11.09-21.92-11.09"/>
                <path class="cls-2" d="M158.87,395.22l8.77-23.47c1.72-4.25,7.81-15.69,8.85-15.5l12.78-20.66c-13.52-5.08,58.27,10.8,55.54,8.11,0,0,9.06.24,12.5.73-.41,3.85-10.34,22.54-13.85,29.96-11.6,24.57-11.6,37.65-25.52,40.51-1.57.32-30.07,1.07-32.85,1.1.42-1.91-23.07-4.43-26.2-20.77Z"/>
                <path class="cls-13" d="M406.56,333.32c-.05.47-.11.92-.15,1.36-.3,2.45-.61,4.56-.87,6.48-.05.35-.09.69-.15,1.03.02.02.02.03,0,.05-.35,2.76-.55,5.09-.35,7.43v.04c.43,5.9.73,11.79.5,17.69l-.28,7.1c0,18.32-9.46,44.51-9.51,44.84-.86,5.73-4.8,8.64-7.64,10.03h-.01c-1.58.58-2.75,1.02-2.95,1.1-.02.01-.03.01-.03.01h-164.08s4.64-33.75,4.64-33.75c0-1.66.05-3.03.12-3.98.57-7.5,3.66-17.52,10.59-36.34,1.28-3.47-10.39,3.93-23.11-4.79-.33-.23-.68-.47-1.03-.73-.69-.52-1.39-1.07-2.06-1.69-16.98-15.18-29.85,5.7-29.74-10.78,0-.98.09-1.97.23-2.95,2.1-14.6,18.09-26.54,18.54-30.88,1.53-6.3,3.98-11.67,7.44-16.2.61-.82,1.27-1.61,1.99-2.38.32-.35.64-.7.98-1.05,0,0,0-.02.03-.03.35-.35.7-.72,1.08-1.07,1.13-1.08,2.32-2.07,3.59-2.99.44-.32.86-.63,1.31-.93,1.34-.92,2.75-1.77,4.23-2.55.48-.27.99-.53,1.49-.77.58-.31,1.16-.58,1.74-.84,1.02-.46,2.05-.89,3.13-1.3.56-.22,1.14-.44,1.72-.64,1.01-.35,2.03-.69,3.08-1.02.42-.12.84-.26,1.27-.37,2.27-.65,4.67-1.23,7.18-1.73.69-.15,1.41-.28,2.11-.4,1.43-.28,2.92-.52,4.43-.73.65-.1,1.32-.2,1.99-.28.66-.09,1.34-.19,2.02-.26.96-.1,1.95-.22,2.94-.32,1.66-.18,3.37-.32,5.13-.44.87-.06,1.72-.12,2.61-.18.87-.04,1.75-.09,2.65-.15,1.66-.08,2.02-.56,1.81-1.33-.07-.28-.21-.59-.4-.94v-.02s-.01-.02-.02-.04c-.46-.87-1.13-1.95-1.47-3.15-.4-1.38-.37-2.91.9-4.5,1.16-1.45,15.5-7.77,25.59-9.61,22.44-4.08,45.52-3.35,66.41,5.19.69.28,1.36.62,2,.99,2.88,1.71,5.16,4.34,6.4,7.5,1.92,4.84,4.97,11.31,8.1,12.83,19.79,9.62,36.66,33.52,33.86,58.41Z"/>
                <path class="cls-12" d="M340.14,374.61s-3.7.62-10.19,2.5c-6.49,1.89-18.75,1.78-31.35,0-10.38-1.47-13.28,3.03-13.02,4.52l-2.12-7.92c3.12-1.63,10.93-4.99,16.61-1.35,7.25,4.65,31.69.62,31.69.62,0,0,7.69-13.58,8.37-21.51.29-3.3-.04-7.77-.52-11.9,1.89,2.33,3.89,5.59,4.84,9.65,2.07,8.81-4.32,25.38-4.32,25.38Z"/>
                <path class="cls-12" d="M358.2,254.57c-3.83-.12-9.6-.52-17.95-1.54-19.18-2.36-52.96,1.04-68.71,6.56-3.69,1.3-6.34,2.23-8.24,2.9-.4-1.38-.37-2.91.9-4.5,1.16-1.45,15.5-7.77,25.59-9.61,22.44-4.08,45.52-3.35,66.41,5.19.69.28,1.36.62,2,.99Z"/>
                <g>
                  <path class="cls-12" d="M265.89,267.93c-.08-1.03-2.04,1.01-2.03,0-.17.02-.34.04-.48.05-.9.05-1.79.1-2.66.15-.89.05-1.74.11-2.61.18-1.76.11-3.46.26-5.12.44-1,.1-1.98.21-2.95.32-.68.06-1.35.16-2.01.26-.68.08-1.34.18-2,.27-1.51.21-3,.45-4.43.73-.71.13-1.42.26-2.11.4-2.51.5-4.91,1.08-7.19,1.74-.43.11-.85.24-1.27.37-1.05.32-2.08.66-3.08,1.01-.58.21-1.16.42-1.72.64-1.08.4-2.11.84-3.13,1.29-.58.26-1.16.53-1.74.84-.5.24-1.01.5-1.5.77-1.48.77-2.88,1.63-4.22,2.55-.45.31-.87.61-1.31.93-1.27.92-2.47,1.92-3.59,3-.37.35-.73.71-1.08,1.06-.03.02-.03.03-.03.03-.34.34-.66.69-.98,1.05-.71.77-1.37,1.56-1.98,2.38-3.46,4.53-5.91,9.89-7.44,16.19-.45,4.35-16.43,16.29-18.54,30.89-.13.98-.23,1.97-.23,2.95-.02,3.65.59,5.46,1.74,6.25,0-.2-.01-.39-.01-.61,0-.98.1-1.97.23-2.95,2.11-14.6,18.09-26.54,18.54-30.89,1.53-6.3,3.98-11.66,7.44-16.19.61-.82,1.27-1.61,1.98-2.38.32-.35.64-.71.98-1.05,0,0,0-.02.03-.03.35-.35.71-.71,1.08-1.06,1.13-1.08,2.32-2.08,3.59-3,.44-.32.85-.63,1.31-.93,1.34-.92,2.74-1.77,4.22-2.55.48-.27,1-.53,1.5-.77.58-.31,1.16-.58,1.74-.84,1.02-.45,2.05-.89,3.13-1.29.56-.23,1.14-.44,1.72-.64,1-.35,2.03-.69,3.08-1.02.42-.13.84-.26,1.27-.37,2.27-.66,4.67-1.24,7.19-1.74.69-.15,1.4-.27,2.11-.4,1.43-.27,2.92-.52,4.43-.72.66-.1,1.32-.19,2-.27.66-.1,1.34-.19,2.01-.26.97-.11,1.95-.23,2.95-.32,1.66-.18,3.37-.32,5.12-.44.87-.06,1.72-.13,2.61-.18.62-.03,9.15.03,9.79,0-.2-.84-6.28-4.89-6.35-5.82Z"/>
                  <path class="cls-12" d="M368.67,273.17h-25.79c6.69,1.52,12.98,2.8,15.81,2.99,18.81,1.22,38.84,17.83,46.58,39.08-4.84-19.34-20.11-35.8-36.6-42.07Z"/>
                  <path class="cls-2" d="M406.56,333.32c-.05.47-.11.92-.15,1.36-.3,2.45-.61,4.56-.87,6.48-.05.35-.09.69-.15,1.03.02.02.02.03,0,.05-.35,2.76-.55,5.09-.35,7.43v.04c.43,5.9.73,11.79.5,17.69l-.28,7.1c0,18.32-9.46,44.51-9.51,44.84-.86,5.73-4.8,8.64-7.64,10.03h-.01c-1.58.58-2.75,1.02-2.95,1.1-.02.01-.03.01-.03.01h-164.08s4.64-33.75,4.64-33.75c0-1.66.05-3.03.12-3.98.57-7.5,3.66-17.52,10.59-36.34,1.28-3.47-10.39,3.93-23.11-4.79-.33-.23-.68-.47-1.03-.73-.69-.52-1.39-1.07-2.06-1.69-16.98-15.18-29.85,5.7-29.74-10.78,0-.98.09-1.97.23-2.95,2.1-14.6,18.09-26.54,18.54-30.88,1.53-6.3,3.98-11.67,7.44-16.2.61-.82,1.27-1.61,1.99-2.38.32-.35.64-.7.98-1.05,0,0,0-.02.03-.03.35-.35.7-.72,1.08-1.07,1.13-1.08,2.32-2.07,3.59-2.99.44-.32.86-.63,1.31-.93,1.34-.92,2.75-1.77,4.23-2.55.48-.27.99-.53,1.49-.77.58-.31,1.16-.58,1.74-.84,1.02-.46,2.05-.89,3.13-1.3.56-.22,1.14-.44,1.72-.64,1.01-.35,2.03-.69,3.08-1.02.42-.12.84-.26,1.27-.37,2.27-.65,4.67-1.23,7.18-1.73.69-.15,1.41-.28,2.11-.4,1.43-.28,2.92-.52,4.43-.73.65-.1,1.32-.2,1.99-.28.66-.09,1.34-.19,2.02-.26.96-.1,1.95-.22,2.94-.32,1.66-.18,3.37-.32,5.13-.44.87-.06,1.72-.12,2.61-.18.87-.04,1.75-.09,2.65-.15,5.49-.26-3.29-4.88.82-9.98,1.16-1.44,15.51-7.77,25.59-9.6,22.44-4.09,45.52-3.34,66.41,5.2,3.83,1.57,6.88,4.64,8.4,8.49,1.92,4.84,4.98,11.31,8.1,12.83,19.8,9.62,36.66,33.53,33.86,58.42Z"/>
                </g>
                <path class="cls-6" d="M289.82,271.68c1.8,6.44,8.77,8.49,16.45,5.38.93-.38,1.87-.84,2.82-1.37.28-.17.57-.33.86-.51.66-.4,1.32-.85,1.94-1.3,7.87-5.75,12.55-15.3,10.61-22.2-1.16-4.12-4.41-6.46-8.6-6.78-.2-.02-.41-.02-.63-.02-.29-.02-.6,0-.9,0-3.07.08-6.52,1.16-10,3.28-9.02,5.53-14.65,16.05-12.55,23.52Z"/>
                <g>
                  <path class="cls-10" d="M331.76,243.53c-.02,1.11-.1,2.29-.24,3.42-.02.03-.02.05-.02.08-.06.47-.13.93-.19,1.39-.29,1.6-.66,3.14-1.14,4.62-3.27,9.97-11.12,17.08-20.2,18.37-.55.08-1.08.13-1.64.16-.43.03-.89.05-1.34.05-1.08,0-2.18-.08-3.27-.24-13.44-2.05-22.73-16.32-20.83-31.87.6-4.75,2.18-9.05,4.48-12.7.56-.95,1.21-1.84,1.88-2.69.34-.4.68-.82,1.01-1.19.24-.29.48-.56.73-.82,5.19-5.33,12.28-8.12,19.67-7.01h.06c12.42,1.9,21.35,14.29,21.04,28.44Z"/>
                  <path class="cls-12" d="M309.96,271.4c-.55.08-1.08.13-1.64.16-.43.03-.89.05-1.34.05-1.08,0-2.18-.08-3.27-.24-13.44-2.05-22.73-16.32-20.83-31.87.6-4.75,2.18-9.05,4.48-12.7.56-.95,1.21-1.84,1.88-2.69.34-.4.68-.82,1.01-1.19.24-.29.48-.56.73-.82,5.19-5.33,12.28-8.12,19.67-7.01h.06c.13.02.24.05.37.08-5.09.71-9.8,3.19-13.52,7.02-.26.26-.5.53-.72.82-.35.37-.69.79-1.03,1.19-1.47,1.82-2.72,3.87-3.72,6.09-1.32,2.84-2.21,5.96-2.63,9.3-1.9,15.4,7.23,29.56,20.49,31.8Z"/>
                  <path class="cls-2" d="M331.76,243.53c-.02,1.11-.1,2.29-.24,3.42-.02.03-.02.05-.02.08-.06.47-.13.93-.19,1.39-.29,1.6-.66,3.14-1.14,4.62-3.27,9.97-11.12,17.08-20.2,18.37-.55.08-1.08.13-1.64.16-.43.03-.89.05-1.34.05-1.08,0-2.18-.08-3.27-.24-13.44-2.05-22.73-16.32-20.83-31.87.6-4.75,2.18-9.05,4.48-12.7.56-.95,1.21-1.84,1.88-2.69.34-.4.68-.82,1.01-1.19.24-.29.48-.56.73-.82,5.19-5.33,12.28-8.12,19.67-7.01h.06c12.42,1.9,21.35,14.29,21.04,28.44Z"/>
                  <path class="cls-6" d="M310.72,215.09h-.06c-7.39-1.11-14.48,1.68-19.67,7.01-.24.26-.48.53-.73.82-.34.37-.68.79-1.01,1.19-.68.85-1.32,1.74-1.88,2.69,1.42,1.42,3.01,2.58,4.74,3.5,4.2,2.3,9.04,3.24,13.13,3.05.27,0,6.75,1.02,8.07,5.67.72,2.53,1.69,4.77,3.37,6.44.95.93,2.11,1.69,3.58,2.22,2.4.89,5.61,1.16,9.97.63.48-.48.82-.82,1.29-1.29,0-.03,0-.05.02-.08.13-1.13.23-2.3.24-3.42.31-14.15-8.62-26.54-21.04-28.44Z"/>
                </g>
                <path class="cls-1" d="M242.36,324.09c.09,1.31.22,2.67.41,4.05,1.25,8.98-1.69,12.56-1.69,12.56"/>
                <path class="cls-2" d="M229.34,372.98c3.51-5.09,10.08-20.65,13.22-38.21"/>
                <path class="cls-2" d="M241.08,339.64c-2.62-3.53-3.16-5.52-4.6-9.66"/>
                <path class="cls-2" d="M287.99,283.64c4.26,4.09,10.62,4.49,15.72,1.77"/>
                <g>
                  <path class="cls-2" d="M416.07,327.09c.8-6.92.08-15.17-3.41-22.39"/>
                  <path class="cls-2" d="M423.28,326.22c.29-3.99,0-8.05-.78-11.92"/>
                </g>
                <path class="cls-1" d="M236.72,386.09c-10.03-.03-22.25-5.48-21.51,4.83s28.3,15.56,28.3,15.56l-6.78-20.39Z"/>
                <g>
                  <path class="cls-10" d="M286.39,400.48c-.09,6.29.06,12.23-1.51,18.37-.7,2.75-1.58,5.41-2.55,8.03-.95-.02-1.83-.04-2.64-.05-.36-.01-.7-.02-1.03-.03-2.06-.03-3.53-.05-4.21-.05,0-.02.02-.04.02-.07-9.23-.3-18.4-1.85-24.34-6.02-9.34-6.55-11.32-21.42-11.75-27.38-.1-1.6-.1-2.54-.1-2.54,0,0-.69.89-1.81,1.92-1.78,1.63-4.63,3.53-7.61,2.56-3.72-1.19-4.21-4.22-4.22-5.49-.02-.39,0-.61,0-.61,0,0-.86.11-2.26.19h-.02c-3.23.19-3.64,2.09-7.66.3-2.3-1.05-3.92-2.69-3.92-5.28,0-.23.01-.46.03-.67.9-9.75,14.04-22.74,19.42-22.36,5.16.39,8.84,4.58,8.84,4.58,0,0,2.3-2.28,8.09-.44,4.54,1.44,5.88,3.03,6.27,3.81.53-.25,1.67-.58,3.98-1.09,6.49-1.42,13.24,6.19,13.24,6.19l11.44.16c.49.65,1.69,1.85,1.3,1.13.44.67.83,1.37,1.17,2.08,0,.2.64,2.04.74,2.37.1.39.77,3.97.77,3.56.67,5.56.41,11.25.32,16.84Z"/>
                  <path class="cls-2" d="M286.39,400.48c-.09,6.29.06,12.23-1.51,18.37-.7,2.75-1.58,5.41-2.55,8.03-.95-.02-1.83-.04-2.64-.05-.36-.01-.7-.02-1.03-.03-2.06-.03-3.53-.05-4.21-.05,0-.02.02-.04.02-.07-9.23-.3-18.4-1.85-24.34-6.02-9.34-6.55-11.32-21.42-11.75-27.38-.1-1.6-.1-2.54-.1-2.54,0,0-.69.89-1.81,1.92-1.78,1.63-4.63,3.53-7.61,2.56-3.72-1.19-4.21-4.22-4.22-5.49-.02-.39,0-.61,0-.61,0,0-.86.11-2.26.19h-.02c-3.23.19-3.64,2.09-7.66.3-2.3-1.05-3.92-2.69-3.92-5.28,0-.23.01-.46.03-.67.9-9.75,14.04-22.74,19.42-22.36,5.16.39,8.84,4.58,8.84,4.58,0,0,2.3-2.28,8.09-.44,4.54,1.44,5.88,3.03,6.27,3.81.53-.25,1.67-.58,3.98-1.09,6.49-1.42,13.24,6.19,13.24,6.19l11.44.16c.49.65,1.69,1.85,1.3,1.13.44.67.83,1.37,1.17,2.08,0,.2.64,2.04.74,2.37.1.39.77,3.97.77,3.56.67,5.56.41,11.25.32,16.84Z"/>
                  <path class="cls-2" d="M224.63,389.12s-.19-10.42,14.43-23.26"/>
                  <path class="cls-2" d="M238.26,390.73s2.68-10.85,15.35-20.98"/>
                  <path class="cls-2" d="M240.3,385.69l-2,6.34c-1.55,4.93,5.49,13.39,18.11-1.39l6.21-6.02"/>
                  <path class="cls-2" d="M244.35,398.41c9.99-11.69-.42-18.17,0-18.17"/>
                </g>
                <g>
                  <g>
                    <path class="cls-10" d="M147.86,420.17c-2.8-9.48,4.46-26.29,10.35-27.77,5.65-1.38,11.19,1.31,11.19,1.31,0,0,1.58-2.92,8.47-3.15,5.4-.19,7.45.85,8.17,1.46.46-.41,1.55-1.11,3.83-2.37,1.91-1.06,4.16-1.37,6.38-1.27,5.53.23,10.48,3.09,13.34,7.27l1.39,12.35c16.43,3.96,8.61,17.73.38,17.81-4.85.05-12.96,1.61-17.06,1.39-3.07-.16-5.81-4.35-3.6-6.7-6.77,4.41-10.7,4.86-12.02,2.25-.73-1.46-.55-5.36-.55-5.36,0,0-.39,1.08-1.19,2.42-1.27,2.13-3.59,4.89-7.13,4.99-4.43.14-6.11-2.55-6.62-3.73-.17-.36-.24-.58-.24-.58,0,0,.59-.15-.87.4,0,0-2.79,3.9-7.76,3.57-2.86-.2-5.22-1.2-6.22-3.64-.09-.21-.15-.43-.22-.65Z"/>
                    <path class="cls-2" d="M147.44,420.17c-2.8-9.48,4.46-26.29,10.35-27.77,5.65-1.38,11.19,1.31,11.19,1.31,0,0,1.58-2.92,8.47-3.15,5.4-.19,7.45.85,8.17,1.46.46-.41,1.55-1.11,3.83-2.37,1.91-1.06,4.16-1.37,6.38-1.27,5.53.23,10.48,3.09,13.34,7.27l1.39,12.35c16.43,3.96,10.57,16.49,2.48,17.83-9.54,1.57-14.09,2.02-19.16,1.38-5.66-.64-1.11-8.11-6.72-4.65-9.53,5.87-9.45-5.16-9.45-5.16,0,0-.39,1.08-1.19,2.42-1.27,2.13-3.59,4.89-7.13,4.99-4.43.14-6.11-2.55-6.62-3.73-.17-.36-.24-.58-.24-.58,0,0-3.66,4.3-8.64,3.97-2.86-.2-5.22-1.2-6.22-3.64-.09-.21-.15-.43-.22-.65Z"/>
                    <path class="cls-2" d="M162.53,420.5s-4.22-9.74,6.45-26.78"/>
                    <path class="cls-2" d="M177.69,417.39c-.47-6.4,1.65-13.01,4.6-18.78"/>
                    <path class="cls-2" d="M187.16,422.54c6.16-14.39-7.44-16.95-7-17.09"/>
                  </g>
                  <path class="cls-2" d="M190.06,420.9c3.27-4.79,13.67-12.91,20.51-12.91"/>
                </g>
                <path class="cls-2" d="M314.23,280.66c4.89-6.69,16.93-7.49,28.64-7.49s27.29-.47,27.73,0"/>
                <path class="cls-2" d="M277.81,279.3c-3.17-4.76-11.92-11.37-11.92-11.37"/>
              </g>
              <g>
                <path class="cls-2" d="M331.76,372.99c18.57,2.27,33.16,14.75,33.16,16.34"/>
                <path class="cls-2" d="M324.94,282.04s.99-6.01,8.27-8.58c.76-.27,8.81-.09,9.66-.29"/>
                <path class="cls-2" d="M314.23,283.64s-13.51,22.37-8.39,42.58c3.72,14.68,0,32.85,0,32.85"/>
                <path class="cls-2" d="M282.1,280.66s-1.02,20.65-6.55,34.58c-5.53,13.93-14.16,14.74-16.58,30.7"/>
                <path class="cls-2" d="M282.1,374.49s.51-.32,1.37-.78c3.12-1.63,10.93-4.99,16.61-1.35,7.25,4.65,31.69.62,31.69.62,0,0,7.69-13.58,8.37-21.51.29-3.3-.04-7.77-.52-11.9"/>
              </g>
            </g>
          </g>
          <path class="cls-2" d="M272.24,367.13s-6.36-7.95-14.95-4.53"/>
        </g>
        <g>
          <path class="cls-6" d="M343.15,234.44c-.74,1.68-3.34,1.41-3.7-.4-.87-4.42-2.67-11.5-5.73-14.72-4.63-4.86-2.46-8.09.92-6.96,3.38,1.13,9.31,11.13,9.36,17.47.01,1.94-.35,3.45-.85,4.6Z"/>
          <path class="cls-6" d="M323.08,210.72c-.56-1.04-.19-2.28.84-2.77,1.03-.49,2.32-.04,2.88,1,.56,1.04.19,2.28-.84,2.77-1.03.49-2.32.04-2.88-1Z"/>
        </g>
      </g>
      <line class="cls-2" x1="282.32" y1="426.88" x2="303.71" y2="430.46"/>
      <path class="cls-2" d="M196.23,332.4"/>
      <path class="cls-2" d="M189.26,335.59c9.09-4.87,16.49-7.58,24.17,2.64,7.67,10.22,15.68,8.9,15.91,4.66.23-4.23-4.65-6.61-8.3-6.09"/>
    </g>
    <g id="Device">
      <g>
        <path class="cls-9" d="M250.25,421.86l-118.28-.14-26.02-75.69c-1.85-5.24.14-8.86,5.7-8.9l100.72-1.75c3.45-.03,6.54,2.14,7.69,5.4l30.2,81.08Z"/>
        <path class="cls-11" d="M173.64,377.11c-2.79,0-5.06,2.27-5.06,5.06s2.27,5.04,5.06,5.04,5.04-2.26,5.04-5.04-2.26-5.06-5.04-5.06Z"/>
        <path class="cls-9" d="M266.9,430.39l-132.6-.03c-2.39.02-4.35-1.91-4.37-4.3h0c-.02-2.39,1.91-4.35,4.3-4.37l132.6.03c2.39-.02,4.35,1.91,4.37,4.3h0c.02,2.39-1.91,4.35-4.3,4.37Z"/>
      </g>
    </g>
    <g id="Table">
      <path class="cls-9" d="M454.9,435.07h0c0,2.54-2.06,4.61-4.61,4.61H48.01c-2.54,0-4.61-2.06-4.61-4.61h0c0-2.54,2.06-4.61,4.61-4.61h402.28c2.54,0,4.61,2.06,4.61,4.61Z"/>
    </g>
  </g>
</svg>