<?xml version="1.0" encoding="UTF-8"?>
<svg xmlns="http://www.w3.org/2000/svg" version="1.1" viewBox="0 0 512 512">
  <defs>
    <style>
      .cls-1 {
        fill: #fff;
      }

      .cls-2 {
        fill: #69816b;
      }

      .cls-3 {
        fill: #211b1d;
      }

      .cls-4 {
        fill: #dfdbcf;
      }
    </style>
  </defs>
  <!-- Generator: Adobe Illustrator 28.6.0, SVG Export Plug-In . SVG Version: 1.2.0 Build 709)  -->
  <g>
    <g id="Layer_1">
      <g id="Layer_1-2" data-name="Layer_1">
        <g>
          <path class="cls-3" d="M60.5.5h391c33.1,0,60,26.9,60,60v391c0,33.1-26.9,60-60,60H60.5c-33.1,0-60-26.9-60-60V60.5C.5,27.4,27.4.5,60.5.5Z"/>
          <path class="cls-1" d="M451.5,1c32.8,0,59.5,26.7,59.5,59.5v391c0,32.8-26.7,59.5-59.5,59.5H60.5c-32.8,0-59.5-26.7-59.5-59.5V60.5C1,27.7,27.7,1,60.5,1h391M451.5,0H60.5C27.1,0,0,27.1,0,60.5v391c0,33.4,27.1,60.5,60.5,60.5h391c33.4,0,60.5-27.1,60.5-60.5V60.5c0-33.4-27.1-60.5-60.5-60.5h0Z"/>
        </g>
        <g>
          <path class="cls-2" d="M437.3,131c25.7,66.3-8.1,143.4-9.5,146.1-2.7,5.4-6.8,8.1-12.2,8.1h-1.4c-6.8-1.4-10.8-5.4-12.2-10.8-18.9-86.6-71.7-156.9-104.2-186.7-4.1,9.5-8.1,16.2-12.2,21.6,14.9,8.1,28.4,18.9,39.2,31.1,21.6,24.4,44.6,69,32.5,143.4-21.6,142.1-154.2,188.1-215.1,188.1s-9.5,0-13.5-1.4c-71.7-13.5-66.3-78.5-60.9-147.5l2.7-17.6c1.3-8.1,0-18.9,0-31.1-2.7-52.8-5.4-133.9,92-170.5,17.6-6.8,35.2-9.5,54.1-9.5s29.8,2.7,44.7,6.8c5.4-8.1,16.2-24.3,18.9-48.7,0-8.1,8.1-13.5,14.9-12.2,8.1,0,12.2,6.8,12.2,13.5h8.1c18.9,0,35.2,1.3,47.4,6.8,36.5,14.9,60.9,37.9,74.4,70.4h0ZM417,223c5.4-24.4,6.8-55.5-4.1-82.5-10.8-24.3-29.8-43.3-59.5-55.5-6.8-1.3-14.9-2.7-23-5.4,29.8,31.1,64.9,82.5,86.6,143.4ZM330.4,279.8c8.1-50.1-1.4-93.4-25.7-121.8-20.3-24.4-52.8-39.2-89.3-39.2s-31.1,2.7-44.7,8.1c-79.8,29.8-77.1,90.6-74.4,146.1,0,12.2,1.3,23,0,33.8l-1.3,18.9c-6.8,71.7-6.8,109.6,39.2,119.1h8.1c32.5,0,167.8-29.8,188.1-165.1h0Z"/>
          <path class="cls-2" d="M413,140.4c10.8,27.1,9.5,58.2,4.1,82.5-21.6-60.9-56.8-112.3-86.6-143.4,8.1,2.7,16.2,4.1,23,5.4,29.8,12.2,48.7,31.1,59.5,55.5Z"/>
          <path class="cls-2" d="M304.7,158c24.4,28.4,33.8,71.7,25.7,121.8-20.3,135.3-155.6,165.1-188.1,165.1h-8.1c-46-9.5-46-47.4-39.2-119.1l1.3-18.9c1.3-10.8,0-21.6,0-33.8-2.7-55.5-5.4-116.4,74.4-146.1,13.5-5.4,29.8-8.1,44.6-8.1,36.5,0,69,14.9,89.3,39.2h0Z"/>
        </g>
      </g>
      <path class="cls-4" d="M271.9,273.6c-3.6,14.7-9.2,27.5-16.8,38.6-7.6,11.1-16.9,19.7-27.7,25.8-10.8,6.1-22.7,9.2-35.5,9.2s-25.8-3.1-36.5-9.3-19.2-14.9-25.2-26c-6.1-11.1-9.1-23.9-9.1-38.3s3-27.1,9.1-38.2c6.1-11.2,14.5-19.9,25.2-26.1,10.8-6.2,22.9-9.3,36.5-9.3s24.7,3.1,35.5,9.2c10.8,6.1,20.1,14.7,27.8,25.8,7.7,11.1,13.2,24,16.8,38.6ZM144.5,273.6c0,10.6,2.2,20,6.6,28.2,4.4,8.2,10.5,14.6,18.2,19.2,7.8,4.6,16.6,6.9,26.4,6.9s18.9-2.2,27.3-6.8c8.5-4.5,16-10.8,22.6-18.9,6.6-8.1,12-17.6,16.2-28.6-4.2-10.8-9.7-20.3-16.2-28.4-6.6-8.1-14.1-14.5-22.6-19-8.5-4.5-17.6-6.8-27.3-6.8s-18.6,2.3-26.4,6.9c-7.8,4.6-13.9,11-18.2,19.2-4.4,8.2-6.6,17.6-6.6,28.2ZM263,344l-5-53.1,6.2-17.2-6.2-17.1,5-53.2h23.5l-6.6,70.4,6.6,70.4h-23.5Z"/>
    </g>
  </g>
</svg>